<?xml version="1.0" standalone="no"?><!DOCTYPE svg PUBLIC "-//W3C//DTD SVG 1.1//EN" "http://www.w3.org/Graphics/SVG/1.1/DTD/svg11.dtd"><svg t="1635175893040" class="icon" viewBox="0 0 1024 1024" version="1.1" xmlns="http://www.w3.org/2000/svg" p-id="1395" xmlns:xlink="http://www.w3.org/1999/xlink" width="32" height="32"><defs><style type="text/css"></style></defs><path d="M504.6016 653.2352a76.736 76.736 0 0 0-35.3536 64.6656V966.528c0 3.3024 0.2048 6.5664 0.6144 9.7664H76.8a76.8 76.8 0 0 1-76.8-76.8v-84.736c0-89.1904 72.32-161.5104 161.5232-161.5104h343.0784zM347.2 51.2h122.4064c91.904 0 166.4 74.496 166.4 166.4v151.7696c0 91.904-74.496 166.4-166.4 166.4h-122.4064c-91.904 0-166.4-74.496-166.4-166.4V217.6c0-91.904 74.496-166.4 166.4-166.4z" fill="#1989FA" opacity=".3" p-id="1396"></path><path d="M752.2176 855.6672c-0.64 2.4704-0.9856 5.0816-0.9856 7.7696v30.2848a30.72 30.72 0 0 0 30.72 30.72h0.3456a30.72 30.72 0 0 0 30.72-30.72v-30.2848c0-2.688-0.3456-5.2992-0.9856-7.7696a61.056 61.056 0 0 0 31.8848-53.5296c0-33.7792-27.6608-61.1584-61.7984-61.1584-34.1248 0-61.7856 27.3792-61.7856 61.1584a61.056 61.056 0 0 0 31.8848 53.5296zM935.3088 985.6H613.056C577.2544 985.6 550.4 958.6944 550.4 922.816V712.0256c0-35.8784 26.8544-62.784 62.656-62.784h322.2528c35.8144 0 62.6688 26.9056 62.6688 62.784v206.2976C1002.4576 958.6944 971.1232 985.6 935.296 985.6z" fill="#1989FA" p-id="1397"></path><path d="M921.1648 679.8208H643.072V539.392c0-54.3616 44.8512-104.192 94.1952-104.192h85.2096c53.824 0 94.1824 45.312 94.1824 104.192V679.808h4.48z m-216.2816-31.7056h154.4832v-93.3888c0-31.1296-19.712-58.368-46.016-58.368h-62.4512c-26.2912 0-46.016 27.2384-46.016 58.368v93.3888z" fill="#1989FA" p-id="1398"></path></svg>